<svg width="1440" height="1024" viewBox="0 0 1440 1024" fill="none" xmlns="http://www.w3.org/2000/svg">
<g clip-path="url(#clip0)">
<rect width="1440" height="1024" fill="#222222"/>
<path d="M737.062 365.041C614.275 428.023 532.266 497.801 491.035 574.376C449.804 650.951 375.271 715.519 267.436 768.079C159.601 820.639 92.7704 782.805 66.9443 654.576C41.1183 526.347 -23.2202 430.289 -126.071 366.401C-228.922 302.513 -251.577 222.086 -194.034 125.122C-136.492 28.1571 -68.7556 -57.2534 9.17558 -131.11C87.1068 -204.966 167.983 -199.982 251.804 -116.157C335.626 -32.3325 437.571 -0.841684 557.639 -21.6846C677.707 -42.5274 768.325 0.970726 829.492 108.81C890.659 216.649 859.849 302.06 737.062 365.041Z" fill="#E38448"/>
<path d="M1507.76 322.78C1491.28 401.807 1453.15 477.382 1393.36 549.504C1333.57 621.626 1265.35 624.695 1188.7 558.711C1112.05 492.727 1046.32 447.075 991.517 421.756C936.712 396.436 897.045 353.853 872.517 294.007C847.988 234.161 828.826 160.313 815.029 72.4616C801.232 -15.3894 834.575 -77.3455 915.058 -113.407C995.541 -149.468 1077.56 -172.102 1161.11 -181.309C1244.66 -190.516 1310.96 -162.127 1360.02 -96.1433C1409.07 -30.1591 1450.08 36.4005 1483.04 103.536C1516 170.671 1524.24 243.752 1507.76 322.78Z" fill="#E064C8"/>
</g>
<defs>
<clipPath id="clip0">
<rect width="1440" height="1024" fill="white"/>
</clipPath>
</defs>
</svg>
