<svg width="553" height="545" viewBox="0 0 553 545" fill="none" xmlns="http://www.w3.org/2000/svg">
<path d="M348.945 132.243C409.134 162.883 498.557 176.239 533.81 219.45C569.923 262.66 551.867 335.726 506.295 381.293C461.584 427.646 388.498 446.502 314.552 478.714C240.606 510.925 164.081 556.493 106.472 542.351C48.8628 528.995 10.1702 456.715 1.57186 392.292C-6.16666 328.655 17.0489 272.874 19.6284 206.094C21.3481 138.528 3.29152 59.9629 35.1054 24.6087C66.0595 -11.5311 147.744 -4.46031 203.633 23.823C259.523 51.3207 289.617 100.817 348.945 132.243Z" fill="url(#paint0_linear)"/>
<path d="M101.25 227H106.4C106.833 227 107.05 227.2 107.05 227.6V255.65H121.05C121.25 255.65 121.383 255.733 121.45 255.9C121.55 256.067 121.55 256.217 121.45 256.35L117.7 261.2C117.267 261.733 116.733 262 116.1 262H101.25C101.083 262 100.933 261.95 100.8 261.85C100.7 261.717 100.65 261.567 100.65 261.4V227.6C100.65 227.433 100.7 227.3 100.8 227.2C100.933 227.067 101.083 227 101.25 227ZM124.006 244.35C124.006 241.783 124.473 239.4 125.406 237.2C126.373 234.967 127.656 233.05 129.256 231.45C130.889 229.817 132.806 228.55 135.006 227.65C137.206 226.717 139.573 226.267 142.106 226.3C144.639 226.333 147.006 226.833 149.206 227.8C151.406 228.767 153.306 230.083 154.906 231.75C156.539 233.417 157.823 235.367 158.756 237.6C159.689 239.8 160.139 242.15 160.106 244.65C160.073 247.183 159.573 249.55 158.606 251.75C157.639 253.95 156.323 255.867 154.656 257.5C153.023 259.133 151.106 260.417 148.906 261.35C146.706 262.25 144.339 262.7 141.806 262.7C139.306 262.7 136.956 262.233 134.756 261.3C132.589 260.333 130.706 259.033 129.106 257.4C127.506 255.733 126.256 253.783 125.356 251.55C124.456 249.317 124.006 246.917 124.006 244.35ZM130.406 244.6C130.406 246.233 130.723 247.783 131.356 249.25C131.989 250.717 132.839 252 133.906 253.1C134.973 254.2 136.206 255.067 137.606 255.7C139.006 256.333 140.506 256.65 142.106 256.65C143.673 256.617 145.156 256.267 146.556 255.6C147.956 254.933 149.173 254.05 150.206 252.95C151.273 251.817 152.106 250.517 152.706 249.05C153.306 247.55 153.589 245.983 153.556 244.35C153.556 242.717 153.239 241.167 152.606 239.7C151.973 238.233 151.123 236.967 150.056 235.9C148.989 234.8 147.739 233.933 146.306 233.3C144.906 232.667 143.423 232.35 141.856 232.35C140.289 232.383 138.806 232.733 137.406 233.4C136.006 234.033 134.789 234.917 133.756 236.05C132.723 237.15 131.906 238.433 131.306 239.9C130.706 241.367 130.406 242.933 130.406 244.6ZM166.436 226.9H171.586C171.752 226.9 171.886 226.967 171.986 227.1C172.119 227.2 172.186 227.333 172.186 227.5V249.15C172.186 250.05 172.336 250.917 172.636 251.75C172.969 252.55 173.402 253.283 173.936 253.95C174.502 254.583 175.169 255.1 175.936 255.5C176.702 255.9 177.536 256.15 178.436 256.25C179.469 256.35 180.436 256.233 181.336 255.9C182.269 255.567 183.069 255.083 183.736 254.45C184.436 253.817 184.986 253.067 185.386 252.2C185.786 251.3 185.986 250.35 185.986 249.35V227.5C185.986 227.333 186.052 227.2 186.186 227.1C186.319 226.967 186.469 226.9 186.636 226.9H191.736C191.902 226.9 192.036 226.967 192.136 227.1C192.269 227.2 192.336 227.333 192.336 227.5V249.35C192.336 251.15 191.986 252.85 191.286 254.45C190.619 256.05 189.702 257.45 188.536 258.65C187.369 259.85 185.986 260.817 184.386 261.55C182.819 262.25 181.136 262.617 179.336 262.65C177.469 262.683 175.719 262.35 174.086 261.65C172.452 260.917 171.019 259.933 169.786 258.7C168.552 257.433 167.586 255.983 166.886 254.35C166.186 252.683 165.836 250.917 165.836 249.05V227.5C165.836 227.333 165.886 227.2 165.986 227.1C166.119 226.967 166.269 226.9 166.436 226.9ZM200.127 227H205.277C205.71 227 205.927 227.2 205.927 227.6V261.4C205.927 261.8 205.71 262 205.277 262H200.127C199.96 262 199.81 261.95 199.677 261.85C199.577 261.717 199.527 261.567 199.527 261.4V227.6C199.527 227.433 199.577 227.3 199.677 227.2C199.81 227.067 199.96 227 200.127 227ZM212.2 237.25C212.2 235.683 212.517 234.233 213.15 232.9C213.817 231.567 214.7 230.417 215.8 229.45C216.933 228.483 218.233 227.717 219.7 227.15C221.2 226.583 222.783 226.3 224.45 226.3C227.05 226.3 229.3 226.767 231.2 227.7C233.133 228.6 234.583 229.65 235.55 230.85C235.783 231.15 235.767 231.417 235.5 231.65L232.05 235.25C231.917 235.383 231.75 235.45 231.55 235.45C231.383 235.45 231.233 235.367 231.1 235.2C230.8 234.867 230.417 234.533 229.95 234.2C229.517 233.867 229 233.567 228.4 233.3C227.833 233 227.217 232.767 226.55 232.6C225.883 232.433 225.2 232.35 224.5 232.35C223.667 232.35 222.9 232.483 222.2 232.75C221.533 232.983 220.967 233.3 220.5 233.7C220.033 234.1 219.667 234.567 219.4 235.1C219.133 235.633 219 236.2 219 236.8C219 237.767 219.317 238.6 219.95 239.3C220.583 240 221.533 240.483 222.8 240.75L227.7 241.7C229.3 242 230.7 242.483 231.9 243.15C233.133 243.783 234.15 244.55 234.95 245.45C235.783 246.35 236.417 247.367 236.85 248.5C237.283 249.6 237.5 250.767 237.5 252C237.5 253.333 237.217 254.65 236.65 255.95C236.117 257.25 235.3 258.417 234.2 259.45C233.133 260.483 231.817 261.317 230.25 261.95C228.683 262.55 226.883 262.85 224.85 262.85C223.417 262.85 222.067 262.7 220.8 262.4C219.567 262.1 218.433 261.717 217.4 261.25C216.4 260.75 215.517 260.217 214.75 259.65C213.983 259.05 213.35 258.467 212.85 257.9C212.617 257.667 212.617 257.4 212.85 257.1L216 253.05C216.1 252.883 216.233 252.8 216.4 252.8C216.6 252.767 216.767 252.817 216.9 252.95C217.367 253.383 217.883 253.833 218.45 254.3C219.017 254.733 219.633 255.133 220.3 255.5C220.967 255.867 221.683 256.167 222.45 256.4C223.217 256.633 224.033 256.75 224.9 256.75C226.733 256.75 228.133 256.35 229.1 255.55C230.067 254.75 230.55 253.717 230.55 252.45C230.55 251.45 230.183 250.583 229.45 249.85C228.75 249.083 227.7 248.567 226.3 248.3L221.4 247.3C218.6 246.733 216.367 245.583 214.7 243.85C213.033 242.117 212.2 239.917 212.2 237.25ZM100.65 316.3V282.5C100.65 282.333 100.7 282.2 100.8 282.1C100.933 281.967 101.083 281.9 101.25 281.9H127.65C127.817 281.9 127.95 281.967 128.05 282.1C128.183 282.2 128.25 282.333 128.25 282.5V289.85C128.25 290.317 128.1 290.733 127.8 291.1L120.5 300.65C120.067 301.183 119.517 301.45 118.85 301.45H112.5C112.3 301.45 112.15 301.383 112.05 301.25C111.983 301.083 112.017 300.917 112.15 300.75L121.75 288.25H107.05V316.3C107.05 316.7 106.833 316.9 106.4 316.9H101.25C101.083 316.9 100.933 316.85 100.8 316.75C100.7 316.617 100.65 316.467 100.65 316.3ZM132.063 299.35C132.063 296.783 132.529 294.4 133.463 292.2C134.429 289.967 135.713 288.05 137.313 286.45C138.946 284.817 140.863 283.55 143.063 282.65C145.263 281.717 147.629 281.267 150.163 281.3C152.696 281.333 155.063 281.833 157.263 282.8C159.463 283.767 161.363 285.083 162.963 286.75C164.596 288.417 165.879 290.367 166.813 292.6C167.746 294.8 168.196 297.15 168.163 299.65C168.129 302.183 167.629 304.55 166.663 306.75C165.696 308.95 164.379 310.867 162.713 312.5C161.079 314.133 159.163 315.417 156.963 316.35C154.763 317.25 152.396 317.7 149.863 317.7C147.363 317.7 145.013 317.233 142.813 316.3C140.646 315.333 138.763 314.033 137.162 312.4C135.563 310.733 134.313 308.783 133.413 306.55C132.513 304.317 132.063 301.917 132.063 299.35ZM138.463 299.6C138.463 301.233 138.779 302.783 139.413 304.25C140.046 305.717 140.896 307 141.963 308.1C143.029 309.2 144.263 310.067 145.663 310.7C147.063 311.333 148.563 311.65 150.163 311.65C151.729 311.617 153.213 311.267 154.613 310.6C156.013 309.933 157.229 309.05 158.263 307.95C159.329 306.817 160.163 305.517 160.763 304.05C161.363 302.55 161.646 300.983 161.613 299.35C161.613 297.717 161.296 296.167 160.663 294.7C160.029 293.233 159.179 291.967 158.113 290.9C157.046 289.8 155.796 288.933 154.363 288.3C152.963 287.667 151.479 287.35 149.913 287.35C148.346 287.383 146.863 287.733 145.463 288.4C144.063 289.033 142.846 289.917 141.813 291.05C140.779 292.15 139.963 293.433 139.363 294.9C138.763 296.367 138.463 297.933 138.463 299.6ZM172.492 299.35C172.492 296.783 172.959 294.4 173.892 292.2C174.859 290 176.142 288.083 177.742 286.45C179.376 284.817 181.292 283.55 183.492 282.65C185.692 281.717 188.059 281.267 190.592 281.3C193.292 281.333 195.776 281.883 198.042 282.95C200.342 284.017 202.326 285.483 203.992 287.35C204.092 287.483 204.126 287.633 204.092 287.8C204.092 287.967 204.026 288.1 203.892 288.2L199.942 291.55C199.809 291.65 199.659 291.7 199.492 291.7C199.326 291.667 199.192 291.583 199.092 291.45C197.992 290.183 196.692 289.183 195.192 288.45C193.692 287.683 192.076 287.317 190.342 287.35C188.776 287.383 187.292 287.733 185.892 288.4C184.492 289.033 183.276 289.917 182.242 291.05C181.209 292.15 180.392 293.433 179.792 294.9C179.192 296.367 178.892 297.933 178.892 299.6C178.892 301.267 179.209 302.833 179.842 304.3C180.476 305.767 181.326 307.05 182.392 308.15C183.459 309.25 184.692 310.117 186.092 310.75C187.492 311.35 188.992 311.65 190.592 311.65C192.259 311.617 193.826 311.233 195.292 310.5C196.759 309.767 198.026 308.767 199.092 307.5C199.192 307.367 199.326 307.3 199.492 307.3C199.659 307.267 199.809 307.317 199.942 307.45L203.892 310.8C204.026 310.9 204.092 311.033 204.092 311.2C204.126 311.367 204.092 311.517 203.992 311.65C202.292 313.55 200.276 315.05 197.942 316.15C195.609 317.217 193.059 317.733 190.292 317.7C187.792 317.7 185.442 317.233 183.242 316.3C181.076 315.333 179.192 314.033 177.592 312.4C175.992 310.733 174.742 308.783 173.842 306.55C172.942 304.317 172.492 301.917 172.492 299.35ZM209.732 316.4V282.6C209.732 282.433 209.782 282.3 209.882 282.2C210.015 282.067 210.165 282 210.332 282H215.482C215.915 282 216.132 282.2 216.132 282.6V296.35H230.482V282.6C230.482 282.433 230.532 282.3 230.632 282.2C230.765 282.067 230.915 282 231.082 282H236.282C236.449 282 236.582 282.067 236.682 282.2C236.815 282.3 236.882 282.433 236.882 282.6V316.4C236.882 316.567 236.815 316.717 236.682 316.85C236.582 316.95 236.449 317 236.282 317H231.082C230.915 317 230.765 316.95 230.632 316.85C230.532 316.717 230.482 316.567 230.482 316.4V302.7H216.132V316.4C216.132 316.8 215.915 317 215.482 317H210.332C210.165 317 210.015 316.95 209.882 316.85C209.782 316.717 209.732 316.567 209.732 316.4ZM244.058 282.6C244.058 282.433 244.108 282.3 244.208 282.2C244.342 282.067 244.492 282 244.658 282H266.258C266.658 282 266.858 282.2 266.858 282.6V287.75C266.858 288.15 266.658 288.35 266.258 288.35H250.458V296.35H262.958C263.358 296.35 263.558 296.55 263.558 296.95V302.05C263.558 302.483 263.358 302.7 262.958 302.7H250.458V310.65H267.808C268.008 310.65 268.142 310.733 268.208 310.9C268.308 311.067 268.292 311.217 268.158 311.35L264.458 316.2C264.025 316.733 263.475 317 262.808 317H244.658C244.492 317 244.342 316.95 244.208 316.85C244.108 316.717 244.058 316.567 244.058 316.4V282.6ZM273.013 282.5C273.013 282.333 273.063 282.2 273.163 282.1C273.297 281.967 273.447 281.9 273.613 281.9H300.013C300.18 281.9 300.313 281.967 300.413 282.1C300.547 282.2 300.613 282.333 300.613 282.5V289.85C300.613 290.317 300.463 290.733 300.163 291.1L292.263 301.45L303.563 316.2C303.663 316.367 303.663 316.533 303.563 316.7C303.497 316.833 303.38 316.9 303.213 316.9H296.863C296.197 316.9 295.647 316.633 295.213 316.1L284.263 301.85C284.03 301.583 284.03 301.333 284.263 301.1L294.113 288.25H279.413V316.3C279.413 316.7 279.197 316.9 278.763 316.9H273.613C273.447 316.9 273.297 316.85 273.163 316.75C273.063 316.617 273.013 316.467 273.013 316.3V282.5ZM304.475 299.35C304.475 296.783 304.941 294.4 305.875 292.2C306.841 289.967 308.125 288.05 309.725 286.45C311.358 284.817 313.275 283.55 315.475 282.65C317.675 281.717 320.041 281.267 322.575 281.3C325.108 281.333 327.475 281.833 329.675 282.8C331.875 283.767 333.775 285.083 335.375 286.75C337.008 288.417 338.291 290.367 339.225 292.6C340.158 294.8 340.608 297.15 340.575 299.65C340.541 302.183 340.041 304.55 339.075 306.75C338.108 308.95 336.791 310.867 335.125 312.5C333.491 314.133 331.575 315.417 329.375 316.35C327.175 317.25 324.808 317.7 322.275 317.7C319.775 317.7 317.425 317.233 315.225 316.3C313.058 315.333 311.175 314.033 309.575 312.4C307.975 310.733 306.725 308.783 305.825 306.55C304.925 304.317 304.475 301.917 304.475 299.35ZM310.875 299.6C310.875 301.233 311.191 302.783 311.825 304.25C312.458 305.717 313.308 307 314.375 308.1C315.441 309.2 316.675 310.067 318.075 310.7C319.475 311.333 320.975 311.65 322.575 311.65C324.141 311.617 325.625 311.267 327.025 310.6C328.425 309.933 329.641 309.05 330.675 307.95C331.741 306.817 332.575 305.517 333.175 304.05C333.775 302.55 334.058 300.983 334.025 299.35C334.025 297.717 333.708 296.167 333.075 294.7C332.441 293.233 331.591 291.967 330.525 290.9C329.458 289.8 328.208 288.933 326.775 288.3C325.375 287.667 323.891 287.35 322.325 287.35C320.758 287.383 319.275 287.733 317.875 288.4C316.475 289.033 315.258 289.917 314.225 291.05C313.191 292.15 312.375 293.433 311.775 294.9C311.175 296.367 310.875 297.933 310.875 299.6ZM346.304 316.4V282.6C346.304 282.433 346.354 282.3 346.454 282.2C346.588 282.067 346.738 282 346.904 282H351.654C352.321 282 352.871 282.267 353.304 282.8L371.304 306.2V282.6C371.304 282.2 371.504 282 371.904 282H377.054C377.454 282 377.654 282.2 377.654 282.6V316.4C377.654 316.8 377.454 317 377.054 317H372.304C371.638 317 371.088 316.733 370.654 316.2L352.704 292.8V316.4C352.704 316.8 352.488 317 352.054 317H346.904C346.738 317 346.588 316.95 346.454 316.85C346.354 316.717 346.304 316.567 346.304 316.4Z" fill="black"/>
<defs>
<linearGradient id="paint0_linear" x1="0" y1="545" x2="544.942" y2="-7.94129" gradientUnits="userSpaceOnUse">
<stop stop-color="#F87537"/>
<stop offset="1" stop-color="#FBA81F"/>
</linearGradient>
</defs>
</svg>
