<svg width="474" height="405" viewBox="0 0 474 405" fill="none" xmlns="http://www.w3.org/2000/svg">
<path d="M422.322 250.419C383.25 282.732 353.237 318.499 332.283 357.72C311.328 396.941 279.678 411.76 237.333 402.178C194.987 392.595 140.309 389.03 73.298 391.481C6.28723 393.932 -14.7764 362.957 10.1071 298.554C34.9906 234.151 35.5363 170.194 11.7441 106.682C-12.048 43.171 10.5436 16.9864 79.5189 28.1288C148.494 39.2711 202.627 35.3713 241.916 16.4293C281.206 -2.51272 328.245 -5.07546 383.032 8.74107C437.819 22.5576 467.832 58.2131 473.071 115.708C478.31 173.202 461.393 218.106 422.322 250.419Z" fill="#444CF7"/>
</svg>
