<svg width="267" height="37" viewBox="0 0 267 37" fill="none" xmlns="http://www.w3.org/2000/svg">
<path d="M1.2499 0.900004H6.3999C6.56657 0.900004 6.71657 0.966671 6.8499 1.1C6.98324 1.2 7.0499 1.33334 7.0499 1.5V25.1L24.9999 1.7C25.4332 1.16667 25.9832 0.900004 26.6499 0.900004H32.9999C33.1999 0.900004 33.3332 0.983337 33.3999 1.15C33.4999 1.31667 33.4999 1.46667 33.3999 1.6L7.6499 35.1C7.21657 35.6333 6.66657 35.9 5.9999 35.9H1.2499C1.08324 35.9 0.933236 35.85 0.799902 35.75C0.699902 35.6167 0.649902 35.4667 0.649902 35.3V1.5C0.649902 1.33334 0.699902 1.2 0.799902 1.1C0.933236 0.966671 1.08324 0.900004 1.2499 0.900004Z" fill="#BE6F43"/>
<path d="M37.3687 35.4V1.6C37.3687 1.43334 37.4187 1.3 37.5187 1.2C37.652 1.06667 37.802 1 37.9687 1H42.7187C43.3853 1 43.9353 1.26667 44.3687 1.8L70.1187 35.3C70.2187 35.4667 70.2187 35.6333 70.1187 35.8C70.052 35.9333 69.9187 36 69.7187 36H63.3687C62.702 36 62.152 35.7333 61.7187 35.2L53.0687 23.9L44.3687 35.2C43.9353 35.7333 43.3853 36 42.7187 36H37.9687C37.802 36 37.652 35.95 37.5187 35.85C37.4187 35.7167 37.3687 35.5667 37.3687 35.4ZM43.7687 11.8V25.2L48.9187 18.5L43.7687 11.8Z" fill="#BE6F43"/>
<path d="M74.6874 1H79.8374C80.2707 1 80.4874 1.2 80.4874 1.6V29.65H94.4874C94.6874 29.65 94.8207 29.7333 94.8874 29.9C94.9874 30.0667 94.9874 30.2167 94.8874 30.35L91.1374 35.2C90.7041 35.7333 90.1707 36 89.5374 36H74.6874C74.5207 36 74.3707 35.95 74.2374 35.85C74.1374 35.7167 74.0874 35.5667 74.0874 35.4V1.6C74.0874 1.43334 74.1374 1.3 74.2374 1.2C74.3707 1.06667 74.5207 1 74.6874 1Z" fill="#BE6F43"/>
<path d="M97.4433 18.35C97.4433 15.7833 97.9099 13.4 98.8433 11.2C99.8099 8.96667 101.093 7.05 102.693 5.45001C104.327 3.81667 106.243 2.55 108.443 1.65C110.643 0.71667 113.01 0.26667 115.543 0.300003C118.077 0.333336 120.443 0.833336 122.643 1.8C124.843 2.76667 126.743 4.08334 128.343 5.75C129.977 7.41667 131.26 9.36667 132.193 11.6C133.127 13.8 133.577 16.15 133.543 18.65C133.51 21.1833 133.01 23.55 132.043 25.75C131.077 27.95 129.76 29.8667 128.093 31.5C126.46 33.1333 124.543 34.4167 122.343 35.35C120.143 36.25 117.777 36.7 115.243 36.7C112.743 36.7 110.393 36.2333 108.193 35.3C106.027 34.3333 104.143 33.0333 102.543 31.4C100.943 29.7333 99.6933 27.7833 98.7933 25.55C97.8933 23.3167 97.4433 20.9167 97.4433 18.35ZM103.843 18.6C103.843 20.2333 104.16 21.7833 104.793 23.25C105.427 24.7167 106.277 26 107.343 27.1C108.41 28.2 109.643 29.0667 111.043 29.7C112.443 30.3333 113.943 30.65 115.543 30.65C117.11 30.6167 118.593 30.2667 119.993 29.6C121.393 28.9333 122.61 28.05 123.643 26.95C124.71 25.8167 125.543 24.5167 126.143 23.05C126.743 21.55 127.027 19.9833 126.993 18.35C126.993 16.7167 126.677 15.1667 126.043 13.7C125.41 12.2333 124.56 10.9667 123.493 9.9C122.427 8.8 121.177 7.93334 119.743 7.30001C118.343 6.66667 116.86 6.35 115.293 6.35C113.727 6.38334 112.243 6.73334 110.843 7.4C109.443 8.03334 108.227 8.91667 107.193 10.05C106.16 11.15 105.343 12.4333 104.743 13.9C104.143 15.3667 103.843 16.9333 103.843 18.6Z" fill="#BE6F43"/>
<path d="M139.273 1.5C139.273 1.33334 139.323 1.2 139.423 1.1C139.556 0.966671 139.706 0.900004 139.873 0.900004H166.273C166.44 0.900004 166.573 0.966671 166.673 1.1C166.806 1.2 166.873 1.33334 166.873 1.5V8.85C166.873 9.31667 166.723 9.73334 166.423 10.1L158.523 20.45L169.823 35.2C169.923 35.3667 169.923 35.5333 169.823 35.7C169.756 35.8333 169.64 35.9 169.473 35.9H163.123C162.456 35.9 161.906 35.6333 161.473 35.1L150.523 20.85C150.29 20.5833 150.29 20.3333 150.523 20.1L160.373 7.25H145.673V35.3C145.673 35.7 145.456 35.9 145.023 35.9H139.873C139.706 35.9 139.556 35.85 139.423 35.75C139.323 35.6167 139.273 35.4667 139.273 35.3V1.5Z" fill="#BE6F43"/>
<path d="M174.541 1H179.291C179.958 1 180.508 1.26667 180.941 1.8L206.641 35.3C206.774 35.4333 206.791 35.5833 206.691 35.75C206.624 35.9167 206.491 36 206.291 36H199.941C199.274 36 198.724 35.7333 198.291 35.2L189.641 23.9L180.941 35.2C180.508 35.7333 179.958 36 179.291 36H174.541C174.374 36 174.224 35.95 174.091 35.85C173.991 35.7167 173.941 35.5667 173.941 35.4V1.6C173.941 1.43334 173.991 1.3 174.091 1.2C174.224 1.06667 174.374 1 174.541 1ZM201.541 1.6C201.541 1.2 201.758 1 202.191 1H206.941C207.574 1 208.108 1.26667 208.541 1.8L226.541 25.2V1.6C226.541 1.2 226.741 1 227.141 1H232.291C232.724 1 232.941 1.2 232.941 1.6V35.4C232.941 35.5667 232.874 35.7167 232.741 35.85C232.608 35.95 232.458 36 232.291 36H227.541C226.874 36 226.324 35.7333 225.891 35.2L207.941 11.8V25.5C207.941 25.7 207.841 25.8333 207.641 25.9C207.441 25.9667 207.274 25.9167 207.141 25.75L201.991 19.05C201.691 18.6833 201.541 18.2667 201.541 17.8V1.6ZM180.341 11.8V25.2L185.491 18.5L180.341 11.8Z" fill="#BE6F43"/>
<path d="M238.451 1.5C238.451 1.33334 238.501 1.2 238.601 1.1C238.734 0.966671 238.884 0.900004 239.051 0.900004H260.751C261.417 0.900004 261.967 1.16667 262.401 1.7L266.101 6.55C266.234 6.71667 266.251 6.88334 266.151 7.05C266.084 7.18334 265.951 7.25 265.751 7.25H254.601V35.3C254.601 35.7 254.401 35.9 254.001 35.9H248.851C248.451 35.9 248.251 35.7 248.251 35.3V7.25H239.051C238.884 7.25 238.734 7.2 238.601 7.1C238.501 6.96667 238.451 6.81667 238.451 6.65V1.5Z" fill="#BE6F43"/>
</svg>
