<svg width="704" height="789" viewBox="0 0 704 789" fill="none" xmlns="http://www.w3.org/2000/svg">
<path d="M695.76 505.78C679.28 584.807 641.146 660.382 581.359 732.504C521.571 804.626 453.352 807.695 376.701 741.711C300.05 675.727 234.322 630.075 179.517 604.756C124.712 579.436 85.045 536.853 60.5167 477.007C35.9885 417.161 16.8258 343.313 3.02864 255.462C-10.7685 167.611 22.5746 105.655 103.058 69.5934C183.541 33.5323 265.558 10.8982 349.107 1.6911C432.656 -7.516 498.959 20.8725 548.016 86.8567C597.072 152.841 638.08 219.401 671.04 286.536C704 353.671 712.24 426.752 695.76 505.78Z" fill="#E064C8"/>
</svg>
