<svg width="1195" height="2129" viewBox="0 0 1195 2129" fill="none" xmlns="http://www.w3.org/2000/svg">
<g clip-path="url(#clip0)">
<rect width="1195" height="2129" fill="#222222"/>
<path d="M1464.07 359.364C1261.75 463.389 1126.63 578.639 1058.69 705.115C990.76 831.59 867.954 938.234 690.278 1025.05C512.601 1111.86 402.487 1049.37 359.934 837.577C317.381 625.786 211.373 467.13 41.9084 361.609C-127.556 256.088 -164.883 123.251 -70.0724 -36.9023C24.738 -197.055 136.346 -338.124 264.75 -460.11C393.155 -582.096 526.412 -573.864 664.522 -435.414C802.632 -296.964 970.603 -244.951 1168.44 -279.377C1366.27 -313.802 1515.58 -241.958 1616.36 -63.8439C1717.14 114.27 1666.38 255.339 1464.07 359.364Z" fill="#E38448"/>
<path d="M478.427 848.435C377.56 931.965 300.079 1024.42 245.982 1125.81C191.886 1227.2 110.178 1265.51 0.858766 1240.74C-108.461 1215.97 -249.618 1206.75 -422.614 1213.09C-595.609 1219.42 -649.987 1139.35 -585.748 972.866C-521.508 806.382 -520.1 641.049 -581.521 476.869C-642.943 312.689 -584.621 245.001 -406.554 273.804C-228.487 302.608 -88.7382 292.527 12.6923 243.56C114.123 194.594 235.558 187.97 376.997 223.686C518.436 259.402 595.918 351.574 609.442 500.2C622.966 648.826 579.294 764.905 478.427 848.435Z" fill="#444CF7"/>
</g>
<defs>
<clipPath id="clip0">
<rect width="1195" height="2129" fill="white"/>
</clipPath>
</defs>
</svg>
